<svg width="16" height="14" viewBox="0 0 16 14" fill="none" xmlns="http://www.w3.org/2000/svg">
<path d="M2.86667 8.86669H5.66667M13.1333 8.86669H10.3333M3.80001 6.06669H12.2M14.5333 6.06361V11.6667C14.5333 12.1822 14.1155 12.6 13.6 12.6H12.6667C12.1512 12.6 11.7333 12.1822 11.7333 11.6667V10.7334H4.26667V11.6667C4.26667 12.1822 3.84881 12.6 3.33334 12.6H2.40001C1.88454 12.6 1.46667 12.1822 1.46667 11.6667V6.06361L3.45091 2.75874C3.95703 1.91576 4.86822 1.40002 5.85147 1.40002H10.1485C11.1318 1.40002 12.043 1.91576 12.5491 2.75874L14.5333 6.06361Z" stroke="#FF0D29"/>
</svg>
